<?xml version="1.0" encoding="UTF-8" standalone="no"?>
<svg width="52px" height="52px" viewBox="0 0 52 52" version="1.1" xmlns="http://www.w3.org/2000/svg" xmlns:xlink="http://www.w3.org/1999/xlink">
    <!-- Generator: Sketch 3.6.1 (26313) - http://www.bohemiancoding.com/sketch -->
    <title>graffiti-red</title>
    <desc>Created with Sketch.</desc>
    <defs></defs>
    <g id="Page-1" stroke="none" stroke-width="1" fill="none" fill-rule="evenodd">
        <g id="map-icons" transform="translate(-120.000000, -174.000000)">
            <g id="graffiti-red" transform="translate(126.000000, 180.000000)">
                <circle id="Oval-5" stroke-opacity="0.61" stroke="#D32F2F" stroke-width="12" fill="#D32F2F" cx="20" cy="20" r="20"></circle>
                <path d="M30.2668824,6.08966667 L20.5027059,11.645 L30.2591029,17.1963333 C32.2022647,13.8723333 32.3531176,9.65066667 30.2668824,6.08966667 L30.2668824,6.08966667 L30.2668824,6.08966667 Z" id="Shape" fill="#FFFFFF"></path>
                <path d="M16.2747647,14.4226667 L16.2747647,13.034 L17.6841912,13.034 L17.6841912,10.2563333 L16.2747647,10.2563333 L13.45625,10.2563333 L12.0468235,10.2563333 L12.0468235,13.034 L13.45625,13.034 L13.45625,14.4226667 L10.6373971,14.4226667 L9.22830882,15.8116667 L9.22830882,33.889 L20.5027059,33.889 L20.5027059,15.8116667 L19.0932794,14.4226667 L16.2747647,14.4226667 L16.2747647,14.4226667 Z" id="Shape" fill="#FFFFFF"></path>
            </g>
        </g>
    </g>
</svg>