<?xml version="1.0" encoding="UTF-8" standalone="no"?>
<svg width="52px" height="52px" viewBox="0 0 52 52" version="1.1" xmlns="http://www.w3.org/2000/svg" xmlns:xlink="http://www.w3.org/1999/xlink">
    <!-- Generator: Sketch 3.6.1 (26313) - http://www.bohemiancoding.com/sketch -->
    <title>lighting-red</title>
    <desc>Created with Sketch.</desc>
    <defs></defs>
    <g id="Page-1" stroke="none" stroke-width="1" fill="none" fill-rule="evenodd">
        <g id="map-icons" transform="translate(-198.000000, -174.000000)">
            <g id="lighting-red" transform="translate(204.000000, 180.000000)">
                <circle id="Oval-5" stroke-opacity="0.61" stroke="#D32F2F" stroke-width="12" fill="#D32F2F" cx="20" cy="20" r="20"></circle>
                <path d="M19.9965,8 C16.13275,8 13,11.1325 13,14.9965 C13,16.26875 13.3575,17.4515 13.93275,18.48975 C15.651,21.58525 16.106,23.3235 16.38625,25.00575 C16.6215,26.416 16.947,26.7435 18.01225,26.7435 L19.9965,26.7435 L21.9805,26.7435 C23.04625,26.7435 23.3715,26.4155 23.60675,25.00575 C23.887,23.3235 24.34225,21.585 26.0605,18.48975 C26.636,17.45175 26.993,16.26875 26.993,14.9965 C26.99325,11.1325 23.8605,8 19.9965,8 L19.9965,8 L19.9965,8 Z" id="Shape" fill="#FFFFFF"></path>
                <path d="M22.4965,27.25 L17.4965,27.25 C17.2895,27.25 17.1215,27.41775 17.1215,27.625 L17.1215,27.875 C17.1215,28.08225 17.2895,28.25 17.4965,28.25 L22.4965,28.25 C22.7035,28.25 22.8715,28.08225 22.8715,27.875 L22.8715,27.625 C22.8715,27.41775 22.7035,27.25 22.4965,27.25 L22.4965,27.25 L22.4965,27.25 Z" id="Shape" fill="#FFFFFF"></path>
                <path d="M22.4965,28.75 L17.4965,28.75 C17.2895,28.75 17.1215,28.91775 17.1215,29.125 L17.1215,29.375 C17.1215,29.58225 17.2895,29.75 17.4965,29.75 L22.4965,29.75 C22.7035,29.75 22.8715,29.58225 22.8715,29.375 L22.8715,29.125 C22.8715,28.91775 22.7035,28.75 22.4965,28.75 L22.4965,28.75 L22.4965,28.75 Z" id="Shape" fill="#FFFFFF"></path>
                <path d="M22.4965,30.25 L17.4965,30.25 C17.2895,30.25 17.1215,30.41775 17.1215,30.625 L17.1215,30.875 C17.1215,31.08225 17.2895,31.25 17.4965,31.25 L22.4965,31.25 C22.7035,31.25 22.8715,31.08225 22.8715,30.875 L22.8715,30.625 C22.8715,30.41775 22.7035,30.25 22.4965,30.25 L22.4965,30.25 L22.4965,30.25 Z" id="Shape" fill="#FFFFFF"></path>
                <path d="M18.1215,31.75 L21.8715,31.75 C21.8715,32.5 20.8715,33 19.9965,33 C19.1215,33 18.1215,32.5 18.1215,31.75 L18.1215,31.75 L18.1215,31.75 Z" id="Shape" fill="#FFFFFF"></path>
            </g>
        </g>
    </g>
</svg>