<?xml version="1.0" encoding="UTF-8" standalone="no"?>
<svg width="52px" height="52px" viewBox="0 0 52 52" version="1.1" xmlns="http://www.w3.org/2000/svg" xmlns:xlink="http://www.w3.org/1999/xlink">
    <!-- Generator: Sketch 3.6.1 (26313) - http://www.bohemiancoding.com/sketch -->
    <title>road-green</title>
    <desc>Created with Sketch.</desc>
    <defs></defs>
    <g id="Page-1" stroke="none" stroke-width="1" fill="none" fill-rule="evenodd">
        <g id="map-icons" transform="translate(-42.000000, -33.000000)">
            <g id="road-green" transform="translate(48.000000, 39.000000)">
                <circle id="Oval-5" stroke-opacity="0.610733696" stroke="#4CAF50" stroke-width="12" fill="#4CAF50" cx="20" cy="20" r="20"></circle>
                <path d="M31,24.6666667 L31,20.6666667 L9,20.6666667 L9,24.6666667 L13.125,24.6666667 L13.125,26 L9,26 L9,28.6666667 C9,29.4033333 9.6153125,30 10.375,30 L29.625,30 C30.3846875,30 31,29.4033333 31,28.6666667 L31,26 L26.875,26 L26.875,24.6666667 L31,24.6666667 L31,24.6666667 L31,24.6666667 Z M22.75,26 L17.25,26 L17.25,24.6666667 L22.75,24.6666667 L22.75,26 L22.75,26 L22.75,26 Z M9,15.3333333 L9,19.3333333 L31,19.3333333 L31,15.3333333 L26.875,15.3333333 L26.875,14 L31,14 L31,11.3333333 C31,10.5966667 30.3846875,10 29.625,10 L10.375,10 C9.6153125,10 9,10.5966667 9,11.3333333 L9,14 L13.125,14 L13.125,15.3333333 L9,15.3333333 L9,15.3333333 L9,15.3333333 Z M17.25,14 L22.75,14 L22.75,15.3333333 L17.25,15.3333333 L17.25,14 L17.25,14 L17.25,14 Z" id="Shape" fill="#FFFFFF" transform="translate(20.000000, 20.000000) rotate(90.000000) translate(-20.000000, -20.000000) "></path>
            </g>
        </g>
    </g>
</svg>