<svg width="52" height="52" viewBox="0 0 52 52" xmlns="http://www.w3.org/2000/svg"><title>driveway-yellow</title><g transform="translate(6 6)" fill="none" fill-rule="evenodd"><circle stroke-opacity=".61" stroke="#FFC107" stroke-width="12" fill="#FFC107" cx="20" cy="20" r="20"/><path d="M29.822 16.783l-1.967-5.003c-.368-.958-1.172-1.773-2.694-1.78H14.822c-1.514.007-2.318.822-2.693 1.78l-1.968 5.003c-.78.099-2.163 1.003-2.161 2.716v6.37h1.92v2.033c-.005 2.507 3.597 2.478 3.596 0V25.87h12.952v2.033c.007 2.478 3.61 2.507 3.612 0V25.87H32v-6.37c-.006-1.713-1.39-2.617-2.178-2.716zm-18.048 5.242a1.666 1.666 0 0 1-1.66-1.683c-.005-.936.74-1.693 1.66-1.685.918-.008 1.663.749 1.662 1.685 0 .93-.744 1.685-1.662 1.683zM20 16.735h-7.79l1.484-3.94c.179-.558.456-.958 1.113-.968h10.387c.646.01.925.41 1.112.969l1.484 3.94H20zm8.226 5.29a1.681 1.681 0 0 1-1.677-1.683c.005-.936.75-1.693 1.677-1.685.91-.008 1.655.749 1.661 1.685-.006.93-.75 1.685-1.661 1.683z" fill="#FFF"/></g></svg>