<?xml version="1.0" encoding="UTF-8" standalone="no"?>
<svg width="52px" height="52px" viewBox="0 0 52 52" version="1.1" xmlns="http://www.w3.org/2000/svg" xmlns:xlink="http://www.w3.org/1999/xlink">
    <!-- Generator: Sketch 3.6.1 (26313) - http://www.bohemiancoding.com/sketch -->
    <title>garbage</title>
    <desc>Created with Sketch.</desc>
    <defs>
        <circle id="path-1" cx="20" cy="20" r="20"></circle>
    </defs>
    <g id="Page-1" stroke="none" stroke-width="1" fill="none" fill-rule="evenodd">
        <g id="1_tablet_map" transform="translate(-873.000000, -357.000000)">
            <g id="plot-points" transform="translate(179.000000, 127.000000)">
                <g id="garbage" transform="translate(700.000000, 236.000000)">
                    <mask id="mask-2" fill="white">
                        <use xlink:href="#path-1"></use>
                    </mask>
                    <use id="Mask" stroke-opacity="0.61" stroke="#D32F2F" stroke-width="12" fill="#D32F2F" xlink:href="#path-1"></use>
                    <path d="M12.3067689,30.2964115 C12.4134875,31.2372775 13.2839607,32 14.2500967,32 L24.7499033,32 C25.716455,32 26.5864841,31.237528 26.6932311,30.2964115 L28.25,16.5714286 L10.75,16.5714286 L12.3067689,30.2964115 L12.3067689,30.2964115 Z M14.25,11.4285714 L15.5625,8 L23.4375,8 L24.75,11.4285714 L28.25,11.4285714 C30,11.4285714 30,14.8571429 30,14.8571429 L19.5,14.8571429 L9,14.8571429 C9,14.8571429 9,11.4285714 10.75,11.4285714 L14.25,11.4285714 L14.25,11.4285714 Z M16,11.4285714 L23,11.4285714 L22.125,9.71428571 L16.875,9.71428571 L16,11.4285714 L16,11.4285714 Z" id="Shape" fill="#FFFFFF" mask="url(#mask-2)"></path>
                </g>
            </g>
        </g>
    </g>
</svg>