<?xml version="1.0" encoding="UTF-8" standalone="no"?>
<svg width="52px" height="52px" viewBox="0 0 52 52" version="1.1" xmlns="http://www.w3.org/2000/svg" xmlns:xlink="http://www.w3.org/1999/xlink">
    <!-- Generator: Sketch 3.6.1 (26313) - http://www.bohemiancoding.com/sketch -->
    <title>graffiti</title>
    <desc>Created with Sketch.</desc>
    <defs></defs>
    <g id="Page-1" stroke="none" stroke-width="1" fill="none" fill-rule="evenodd">
        <g id="1_tablet_map" transform="translate(-617.000000, -472.000000)">
            <g id="plot-points" transform="translate(179.000000, 127.000000)">
                <g id="graffiti" transform="translate(444.000000, 351.000000)">
                    <circle id="Oval-5" stroke-opacity="0.610733696" stroke="#4CAF50" stroke-width="12" fill="#4CAF50" cx="20" cy="20" r="20"></circle>
                    <path d="M30.2668824,6.08966667 L20.5027059,11.645 L30.2591029,17.1963333 C32.2022647,13.8723333 32.3531176,9.65066667 30.2668824,6.08966667 L30.2668824,6.08966667 Z" id="Shape" fill="#FFFFFF"></path>
                    <path id="Shape" fill="#FFFFFF" d="M30.2448971,17.2743333 L30.3098971,17.2093333 L30.2878971,17.1963333 C30.2728971,17.2223333 30.2598971,17.2483333 30.2448971,17.2743333 L30.2448971,17.2743333 Z"></path>
                    <path d="M16.2747647,14.4226667 L16.2747647,13.034 L17.6841912,13.034 L17.6841912,10.2563333 L16.2747647,10.2563333 L13.45625,10.2563333 L12.0468235,10.2563333 L12.0468235,13.034 L13.45625,13.034 L13.45625,14.4226667 L10.6373971,14.4226667 L9.22830882,15.8116667 L9.22830882,33.889 L20.5027059,33.889 L20.5027059,15.8116667 L19.0932794,14.4226667 L16.2747647,14.4226667 Z" id="Shape" fill="#FFFFFF"></path>
                </g>
            </g>
        </g>
    </g>
</svg>