<svg width="52" height="52" viewBox="0 0 52 52" xmlns="http://www.w3.org/2000/svg"><title>lighting-red</title><g transform="translate(6 6)" fill="none" fill-rule="evenodd"><circle stroke-opacity=".61" stroke="#D32F2F" stroke-width="12" fill="#D32F2F" cx="20" cy="20" r="20"/><path d="M19.997 8A6.997 6.997 0 0 0 13 14.996c0 1.273.357 2.455.933 3.494 1.718 3.095 2.173 4.834 2.453 6.516.236 1.41.561 1.738 1.626 1.738h3.968c1.066 0 1.392-.328 1.627-1.738.28-1.683.735-3.421 2.454-6.516.575-1.038.932-2.221.932-3.493A6.996 6.996 0 0 0 19.997 8zM22.497 27.25h-5a.375.375 0 0 0-.375.375v.25c0 .207.168.375.375.375h5a.375.375 0 0 0 .375-.375v-.25a.375.375 0 0 0-.375-.375zM22.497 28.75h-5a.375.375 0 0 0-.375.375v.25c0 .207.168.375.375.375h5a.375.375 0 0 0 .375-.375v-.25a.375.375 0 0 0-.375-.375zM22.497 30.25h-5a.375.375 0 0 0-.375.375v.25c0 .207.168.375.375.375h5a.375.375 0 0 0 .375-.375v-.25a.375.375 0 0 0-.375-.375zM18.122 31.75h3.75c0 .75-1 1.25-1.875 1.25s-1.875-.5-1.875-1.25z" fill="#FFF"/></g></svg>