<svg xmlns="http://www.w3.org/2000/svg" width="380" height="145" viewBox="0 0 380 145"><title>Group 3</title><g fill="none" fill-rule="evenodd"><path d="M110.1 88.3c4.9-8.5 7.8-18.5 7.8-29.1C117.9 27 91.7.9 59.4.9S1 27 1 59.2c0 15.6 6.1 29.7 16.1 40.1h-.4l43.1 44.9 42.1-44.6-17.7-12.3c-6.5 5.7-15 9.1-24.4 9.1-20.5 0-37-16.5-37-36.9 0-20.3 16.5-36.9 37-36.9s37 16.6 37 36.9c0 6.1-1.4 11.8-4 16.8l17.3 12zM363.7 99.7c0 4.3 3.4 7.7 7.7 7.7 4.3 0 7.8-3.4 7.8-7.7 0-4.3-3.5-7.8-7.8-7.8s-7.7 3.5-7.7 7.8z" fill="#FF5252"/><path d="M173.1 54.5c-4 0-7.9 1.3-11 3.3-1-2-2.9-3.3-5.1-3.3-3.2 0-5.6 2.5-5.6 5.5v41.2c0 3 2.4 5.5 5.6 5.5 2.7 0 5-2 5.5-4.5.2-.4.2-.7.2-1v-25c0-5.8 4.6-10.5 10.4-10.5 6 0 10.9 4.7 10.9 10.5v25c0 3 2.6 5.5 5.5 5.5 3 0 5.4-2.5 5.4-5.5v-25c0-11.8-9.7-21.7-21.8-21.7zm57.3 52.2c7.4 0 13.6-2.2 18.7-6.9 2.4-2.2 1.3-5.3 0-6.8-1.4-1.7-5.7-2-7.9.3-2.6 2-7 2.9-10.8 2.6-3.7-.3-7.8-2.2-10-4.7-1.9-1.7-3-4.4-3.6-6.8H250c2.9 0 5.1-1.7 5.4-4.2.1-.2.1-.7.1-1v-.5c-.8-14.1-11.5-24.2-25.1-24.2-14.3 0-25.4 11.9-25.5 26.1.1 14.2 11.2 26 25.5 26.1zm0-42.3c9.1.8 14.4 6.9 15.4 11.1h-29.5c.8-4.3 5.2-10.7 14.1-11.1zm79.1-4.3c0-3.1-2.6-5.6-5.6-5.6-2.7 0-4.8 2-5.4 4.6-4-2.8-8.7-4.6-13.9-4.6-7.1 0-13.2 3-17.7 7.8-4.5 4.7-7.1 11.2-7.1 18.4 0 7.1 2.6 13.6 7.1 18.4 4.5 4.7 10.6 7.6 17.7 7.6 5.2 0 9.9-1.7 13.9-4.5.6 2.5 2.7 4.5 5.4 4.5 3 0 5.6-2.5 5.6-5.5V60.1zm-15.2 31.3c-2.5 2.7-6 4.1-9.7 4.1-3.7 0-7.3-1.4-9.7-4.1-2.5-2.7-3.9-6.4-3.9-10.7 0-4.4 1.4-8.1 3.9-10.7 2.4-2.9 6-4.3 9.7-4.3 3.7 0 7.2 1.4 9.7 4.3 2.5 2.6 4.1 6.3 4.1 10.7 0 4.3-1.6 8-4.1 10.7zm46.4-36.9h-2.6V39.4c0-3.2-2.5-5.7-5.7-5.7-3.3 0-5.9 2.5-5.9 5.7v15.1h-3c-3.2 0-5.7 2.5-5.7 5.8 0 3.1 2.5 5.7 5.7 5.7h3v29.1c0 6.4 5.3 11.6 11.6 11.6 3.3 0 5.8-2.5 5.8-5.8 0-3.2-2.5-5.8-5.8-5.8V66h2.6c3.2 0 5.9-2.6 5.9-5.7 0-3.3-2.7-5.8-5.9-5.8zM74.9 40.8V30.6h-5.1v5.3L59.2 25.6 41.1 43.1h.1c-4.2 4.5-6.8 10.5-6.8 17.1 0 13.6 11.1 24.7 24.8 24.7C72.9 84.9 84 73.8 84 60.2c0-6.6-2.6-12.6-6.9-17.1h.2l-2.4-2.3zm-24 10.1h7.3v7.9h-7.3v-7.9zm9.5 0h7.2v7.9h-7.2v-7.9zm0 10.1h7.2v8h-7.2v-8zm-9.5 0h7.3v8h-7.3v-8z" fill="#FFF"/></g></svg>