<svg xmlns="http://www.w3.org/2000/svg" width="380" height="145" viewBox="0 0 380 145" version="1.1"><title>Group 3</title><desc>Created with Sketch.</desc><g stroke="none" stroke-width="1" fill="none" fill-rule="evenodd"><path d="M110.1 88.3C115 79.8 117.9 69.8 117.9 59.2 117.9 27 91.7 0.9 59.4 0.9 27.1 0.9 1 27 1 59.2 1 74.8 7.1 88.9 17.1 99.3L16.7 99.3 59.8 144.2 101.9 99.6 84.2 87.3C77.7 93 69.2 96.4 59.8 96.4 39.3 96.4 22.8 79.9 22.8 59.5 22.8 39.2 39.3 22.6 59.8 22.6 80.3 22.6 96.8 39.2 96.8 59.5 96.8 65.6 95.4 71.3 92.8 76.3L110.1 88.3Z" fill="#FF5252"/><path d="M363.7 99.7C363.7 104 367.1 107.4 371.4 107.4 375.7 107.4 379.2 104 379.2 99.7 379.2 95.4 375.7 91.9 371.4 91.9 367.1 91.9 363.7 95.4 363.7 99.7L363.7 99.7Z" fill="#FF5252"/><path d="M173.1 54.5C169.1 54.5 165.2 55.8 162.1 57.8 161.1 55.8 159.2 54.5 157 54.5 153.8 54.5 151.4 57 151.4 60L151.4 76.2 151.4 101.2C151.4 104.2 153.8 106.7 157 106.7 159.7 106.7 162 104.7 162.5 102.2 162.7 101.8 162.7 101.5 162.7 101.2L162.7 76.2C162.7 70.4 167.3 65.7 173.1 65.7 179.1 65.7 184 70.4 184 76.2L184 101.2C184 104.2 186.6 106.7 189.5 106.7 192.5 106.7 194.9 104.2 194.9 101.2L194.9 76.2C194.9 64.4 185.2 54.5 173.1 54.5L173.1 54.5ZM230.4 106.7C237.8 106.7 244 104.5 249.1 99.8 251.5 97.6 250.4 94.5 249.1 93 247.7 91.3 243.4 91 241.2 93.3 238.6 95.3 234.2 96.2 230.4 95.9 226.7 95.6 222.6 93.7 220.4 91.2 218.5 89.5 217.4 86.8 216.8 84.4L250 84.4C252.9 84.4 255.1 82.7 255.4 80.2 255.5 80 255.5 79.5 255.5 79.2L255.5 79.2 255.5 78.7C254.7 64.6 244 54.5 230.4 54.5 216.1 54.5 205 66.4 204.9 80.6 205 94.8 216.1 106.6 230.4 106.7L230.4 106.7ZM230.4 64.4C239.5 65.2 244.8 71.3 245.8 75.5L216.3 75.5C217.1 71.2 221.5 64.8 230.4 64.4L230.4 64.4ZM309.5 60.1C309.5 57 306.9 54.5 303.9 54.5 301.2 54.5 299.1 56.5 298.5 59.1 294.5 56.3 289.8 54.5 284.6 54.5 277.5 54.5 271.4 57.5 266.9 62.3 262.4 67 259.8 73.5 259.8 80.7 259.8 87.8 262.4 94.3 266.9 99.1 271.4 103.8 277.5 106.7 284.6 106.7 289.8 106.7 294.5 105 298.5 102.2 299.1 104.7 301.2 106.7 303.9 106.7 306.9 106.7 309.5 104.2 309.5 101.2L309.5 80.7 309.5 80.7 309.5 60.1ZM294.3 91.4C291.8 94.1 288.3 95.5 284.6 95.5 280.9 95.5 277.3 94.1 274.9 91.4 272.4 88.7 271 85 271 80.7 271 76.3 272.4 72.6 274.9 70 277.3 67.1 280.9 65.7 284.6 65.7 288.3 65.7 291.8 67.1 294.3 70 296.8 72.6 298.4 76.3 298.4 80.7 298.4 85 296.8 88.7 294.3 91.4L294.3 91.4ZM340.7 54.5L338.1 54.5 338.1 39.4C338.1 36.2 335.6 33.7 332.4 33.7 329.1 33.7 326.5 36.2 326.5 39.4L326.5 54.5 323.5 54.5C320.3 54.5 317.8 57 317.8 60.3 317.8 63.4 320.3 66 323.5 66L326.5 66 326.5 95.1C326.5 101.5 331.8 106.7 338.1 106.7 341.4 106.7 343.9 104.2 343.9 100.9 343.9 97.7 341.4 95.1 338.1 95.1L338.1 66 340.7 66C343.9 66 346.6 63.4 346.6 60.3 346.6 57 343.9 54.5 340.7 54.5L340.7 54.5Z" fill="#FFFFFF"/><path d="M74.9 40.8L74.9 30.6 69.8 30.6 69.8 35.9 59.2 25.6 41.1 43.1 41.2 43.1C37 47.6 34.4 53.6 34.4 60.2 34.4 73.8 45.5 84.9 59.2 84.9 72.9 84.9 84 73.8 84 60.2 84 53.6 81.4 47.6 77.1 43.1L77.3 43.1 74.9 40.8ZM50.9 50.9L58.2 50.9 58.2 58.8 50.9 58.8 50.9 50.9ZM60.4 50.9L67.6 50.9 67.6 58.8 60.4 58.8 60.4 50.9ZM60.4 61L67.6 61 67.6 69 60.4 69 60.4 61ZM50.9 61L58.2 61 58.2 69 50.9 69 50.9 61Z" fill="#FFFFFF"/></g></svg>
