<svg width="52" height="52" viewBox="0 0 52 52" xmlns="http://www.w3.org/2000/svg"><title>tbd</title><g transform="translate(6 6)" fill="none" fill-rule="evenodd"><circle stroke-opacity=".7" stroke="#C9C9C9" stroke-width="12" fill="#C9C9C9" cx="20" cy="20" r="20"/><path d="M20.813 8c-3.516 0-5.8 1.508-6.836 3.32C12.94 13.133 13 15.031 13 15.812h3.125c0-.78.06-2.007.586-2.93.527-.921 1.367-1.757 4.102-1.757 2.082 0 3.24.519 3.857 1.075.617.556.83 1.227.83 2.052 0 2.604-1.025 3.32-2.587 4.687-1.563 1.367-3.663 3.386-3.663 7.031v.782h3.125v-.782c0-2.604 1.025-3.32 2.587-4.687 1.563-1.367 3.663-3.386 3.663-7.031 0-1.52-.569-3.193-1.905-4.396C25.384 8.655 23.416 8 20.813 8zM19.25 29.875V33h3.125v-3.125H19.25z" fill="#FFF"/></g></svg>