<svg width="52" height="52" viewBox="0 0 52 52" xmlns="http://www.w3.org/2000/svg"><title>road-green</title><g transform="translate(6 6)" fill="none" fill-rule="evenodd"><circle stroke-opacity=".611" stroke="#4CAF50" stroke-width="12" fill="#4CAF50" cx="20" cy="20" r="20"/><path d="M15.333 31h4V9h-4v4.125H14V9h-2.667C10.597 9 10 9.615 10 10.375v19.25c0 .76.597 1.375 1.333 1.375H14v-4.125h1.333V31zM14 22.75v-5.5h1.333v5.5H14zM24.667 9h-4v22h4v-4.125H26V31h2.667c.736 0 1.333-.615 1.333-1.375v-19.25C30 9.615 29.403 9 28.667 9H26v4.125h-1.333V9zM26 17.25v5.5h-1.333v-5.5H26z" fill="#FFF"/></g></svg>