<?xml version="1.0" standalone="no"?>
<!DOCTYPE svg PUBLIC "-//W3C//DTD SVG 20010904//EN"
 "http://www.w3.org/TR/2001/REC-SVG-20010904/DTD/svg10.dtd">
<svg version="1.0" xmlns="http://www.w3.org/2000/svg"
 width="700.000000pt" height="700.000000pt" viewBox="0 0 700.000000 700.000000"
 preserveAspectRatio="xMidYMid meet">
<metadata>
Created by potrace 1.11, written by Peter Selinger 2001-2013
</metadata>
<g transform="translate(0.000000,700.000000) scale(0.100000,-0.100000)"
fill="#000000" stroke="none">
<path d="M3338 6885 c-2 -2 -39 -6 -83 -9 -112 -9 -159 -15 -240 -31 -38 -8
-81 -16 -95 -19 -55 -9 -200 -49 -297 -82 -503 -168 -933 -471 -1288 -905 -80
-98 -202 -289 -287 -449 -116 -217 -228 -549 -263 -780 -3 -19 -8 -46 -10 -60
-3 -14 -7 -43 -10 -65 -2 -22 -7 -69 -11 -105 -9 -84 -10 -405 -1 -495 9 -97
21 -179 36 -265 61 -337 204 -694 397 -992 88 -135 216 -302 289 -373 11 -11
20 -25 20 -32 0 -6 74 -89 165 -184 91 -95 182 -191 204 -213 21 -23 116 -122
211 -221 95 -99 198 -207 230 -240 118 -124 485 -508 673 -704 86 -89 350
-366 453 -475 l84 -88 120 127 c66 70 135 144 154 164 31 33 262 278 321 341
41 43 262 279 299 319 18 20 65 70 104 111 39 41 105 111 146 155 42 45 133
141 203 215 69 74 145 155 168 180 23 25 95 101 160 170 65 69 132 141 150
160 17 19 61 66 98 103 l66 68 -25 17 c-13 9 -96 67 -184 129 -88 62 -167 117
-175 123 -273 192 -431 301 -446 307 -7 3 -37 -15 -66 -39 -58 -49 -163 -122
-218 -152 -19 -10 -53 -28 -75 -40 -57 -31 -200 -91 -265 -111 -198 -60 -332
-80 -545 -78 -467 2 -892 179 -1220 508 -342 342 -518 781 -510 1270 4 216 37
393 109 582 233 611 765 1029 1426 1120 81 11 387 8 450 -5 30 -6 75 -14 100
-17 24 -4 48 -9 52 -12 5 -2 21 -7 36 -9 94 -17 373 -132 455 -188 21 -14 40
-26 43 -26 8 0 162 -112 199 -145 238 -209 402 -444 510 -730 30 -80 73 -239
80 -297 3 -22 7 -44 10 -48 5 -8 19 -208 19 -275 0 -48 -12 -206 -20 -255 -19
-130 -93 -370 -144 -469 -11 -23 -20 -47 -18 -52 2 -5 109 -83 238 -173 129
-90 264 -185 300 -210 207 -147 264 -185 272 -180 7 5 138 267 158 319 92 234
149 446 184 685 20 136 27 451 13 605 -65 744 -424 1425 -1002 1898 -297 243
-665 434 -1015 527 -100 27 -302 66 -380 75 -36 4 -78 9 -95 12 -34 5 -412 12
-417 8z"/>
<path d="M3428 5673 c-19 -21 -156 -155 -304 -298 -554 -537 -601 -588 -692
-767 -91 -178 -126 -326 -126 -528 0 -148 21 -292 54 -375 48 -122 67 -163 96
-211 19 -31 34 -59 34 -62 0 -2 26 -37 57 -76 206 -255 476 -408 783 -443 360
-40 703 79 955 332 180 180 292 399 332 650 15 98 9 330 -12 423 -3 12 -7 32
-10 44 -40 184 -165 398 -334 573 l-58 60 1 238 c1 151 -3 237 -9 238 -50 5
-225 2 -226 -3 -1 -5 -3 -57 -4 -118 -1 -60 -3 -113 -4 -116 0 -4 -63 54 -138
129 -76 74 -165 161 -198 193 -33 31 -83 79 -111 106 l-50 49 -36 -38z m-15
-1162 c4 -1 7 -84 6 -186 -1 -164 -3 -185 -18 -186 -68 -3 -313 0 -318 5 -5 4
-8 265 -4 351 1 19 7 20 163 18 90 0 166 -2 171 -2z m448 -26 c3 -96 0 -338
-5 -342 -4 -5 -255 -8 -318 -4 -14 1 -16 22 -17 189 l-1 187 170 0 170 0 1
-30z m-454 -454 c9 -1 12 -48 13 -186 l0 -185 -38 -1 c-102 -3 -292 0 -299 4
-6 4 -9 273 -4 357 1 13 25 15 158 13 87 0 163 -1 170 -2z m454 -31 c3 -131 0
-333 -5 -337 -4 -5 -277 -8 -326 -4 -8 1 -14 356 -5 370 2 3 78 6 169 6 l166
0 1 -35z"/>
</g>
</svg>
